<?xml version="1.0" standalone="no"?>
<!DOCTYPE svg PUBLIC "-//W3C//DTD SVG 20010904//EN"
 "http://www.w3.org/TR/2001/REC-SVG-20010904/DTD/svg10.dtd">
<svg version="1.0" xmlns="http://www.w3.org/2000/svg"
 width="606.000000pt" height="606.000000pt" viewBox="0 0 606.000000 606.000000"
 preserveAspectRatio="xMidYMid meet">
<metadata>
Created by potrace 1.14, written by Peter Selinger 2001-2017
</metadata>
<g transform="translate(0.000000,606.000000) scale(0.100000,-0.100000)"
fill="#000000" stroke="none">
<path d="M2313 4620 c-16 -14 -20 -28 -18 -52 4 -28 0 -36 -23 -49 -124 -72
-234 -136 -272 -157 -25 -13 -52 -30 -60 -37 -8 -7 -25 -16 -37 -19 -13 -4
-23 -12 -23 -17 0 -5 -9 -9 -19 -9 -11 0 -21 -4 -23 -8 -3 -7 -32 -25 -128
-80 -19 -10 -151 -87 -294 -171 -142 -83 -262 -151 -266 -151 -3 0 -6 62 -5
138 1 157 -7 209 -38 238 -87 81 -309 80 -388 -2 l-34 -35 -1 -303 c0 -166 -4
-308 -8 -314 -4 -7 -12 -10 -17 -7 -5 4 -9 2 -9 -3 0 -6 -17 -18 -38 -29 -45
-23 -135 -75 -142 -83 -3 -3 -14 -10 -25 -16 -17 -9 -20 -22 -20 -74 l0 -62
90 -54 c50 -29 97 -57 105 -61 8 -4 154 -88 325 -186 171 -99 353 -204 405
-234 117 -68 116 -67 91 -85 -19 -13 -21 -25 -22 -112 0 -54 1 -99 3 -100 15
-13 131 -76 139 -76 5 0 9 -4 9 -9 0 -5 12 -14 27 -20 16 -6 46 -21 68 -34 85
-52 221 -131 247 -144 15 -8 30 -18 33 -23 3 -5 18 -11 34 -15 23 -5 41 2 84
29 31 20 59 36 62 36 3 0 23 12 45 26 38 25 41 26 65 10 30 -20 31 -23 4 -45
-17 -14 -21 -28 -21 -91 0 -41 1 -82 1 -91 1 -9 18 -24 39 -35 20 -10 39 -21
42 -24 3 -3 19 -12 35 -20 17 -8 48 -27 70 -41 22 -14 60 -37 85 -50 25 -13
47 -27 48 -31 2 -5 7 -8 12 -8 4 0 40 -18 79 -40 71 -40 99 -48 116 -31 6 5
37 23 70 41 33 18 74 41 91 51 29 18 32 18 45 2 10 -11 10 -17 3 -20 -41 -14
-47 -29 -47 -116 0 -48 2 -89 4 -91 6 -5 160 -96 163 -96 2 0 65 -36 140 -80
75 -44 141 -80 146 -80 6 0 10 -4 10 -9 0 -22 42 -17 85 10 25 16 50 29 55 29
6 0 10 5 10 10 0 6 6 10 13 10 7 0 29 11 49 25 42 29 54 26 143 -33 29 -19 59
-31 71 -29 12 2 121 62 243 133 122 71 238 138 259 150 20 11 105 60 187 109
83 48 165 96 183 106 131 76 446 258 462 268 19 12 108 64 370 216 113 65 208
123 212 129 4 6 8 36 8 68 0 56 0 56 -45 82 -45 27 -54 39 -35 51 17 10 11 61
-8 78 -30 27 -70 21 -90 -12 l-18 -30 -75 42 -74 43 -2 259 c-2 286 4 256 -58
302 -29 22 -91 43 -127 43 -37 0 -85 -21 -190 -85 -70 -43 -163 -93 -166 -90
-2 2 -4 85 -3 184 l0 180 -27 19 c-124 89 -169 89 -314 4 -120 -70 -160 -92
-208 -118 -19 -11 -38 -23 -42 -28 -5 -7 -225 109 -251 133 -4 4 -9 43 -10 87
-2 64 -7 85 -23 102 -46 49 -192 63 -259 24 -31 -19 -32 -19 -71 0 l-40 18 2
229 c2 243 0 259 -46 292 -70 51 -238 39 -280 -21 -16 -22 -18 -43 -17 -159 1
-73 0 -134 -2 -136 -2 -2 -21 7 -42 21 -21 13 -41 24 -45 24 -4 0 -32 15 -63
34 -31 19 -72 43 -91 54 -29 16 -181 104 -547 315 -48 28 -51 32 -46 62 4 25
0 38 -16 54 -26 26 -51 27 -78 1z m-1403 -1142 c0 3 6 -3 14 -13 8 -11 12 -23
10 -26 -2 -4 6 -5 18 -2 17 3 19 2 9 -5 -8 -6 -11 -17 -8 -25 4 -11 1 -15 -14
-12 -10 2 -19 0 -19 -6 0 -5 -4 -9 -10 -9 -5 0 -7 8 -4 18 5 16 5 16 -6 0 -12
-20 -35 -25 -24 -5 6 9 4 9 -7 1 -19 -14 -85 -11 -81 4 1 7 -2 12 -7 12 -12 0
-8 20 9 47 7 11 19 19 26 16 6 -2 15 0 18 5 3 6 20 7 41 2 19 -4 35 -5 35 -2z
m40 -18 c0 -5 -2 -10 -4 -10 -3 0 -8 5 -11 10 -3 6 -1 10 4 10 6 0 11 -4 11
-10z"/>
</g>
</svg>
